<svg viewBox="0 0 441 233" version="1.1" xmlns="http://www.w3.org/2000/svg" xmlns:xlink="http://www.w3.org/1999/xlink" overflow="visible" id="i1uw1yk9">
   <desc>Engraved by Verovio 6.2.0-43f8060</desc>
   <defs>
      <g id="E050-i1uw1yk9">
         <path transform="scale(1,-1)" d="M441 -245c-23 -4 -48 -6 -76 -6c-59 0 -102 7 -130 20c-88 42 -150 93 -187 154c-26 44 -43 103 -48 176c0 6 -1 13 -1 19c0 54 15 111 45 170c29 57 65 106 110 148s96 85 153 127c-3 16 -8 46 -13 92c-4 43 -5 73 -5 89c0 117 16 172 69 257c34 54 64 82 89 82 c21 0 43 -30 69 -92s39 -115 41 -159v-15c0 -109 -21 -162 -67 -241c-13 -20 -63 -90 -98 -118c-13 -9 -25 -19 -37 -29l31 -181c8 1 18 2 28 2c58 0 102 -12 133 -35c59 -43 92 -104 98 -184c1 -7 1 -15 1 -22c0 -123 -87 -209 -181 -248c8 -57 17 -110 25 -162 c5 -31 6 -58 6 -80c0 -30 -5 -53 -14 -70c-35 -64 -88 -99 -158 -103c-5 0 -11 -1 -16 -1c-37 0 -72 10 -108 27c-50 24 -77 59 -80 105v11c0 29 7 55 20 76c18 28 45 42 79 44h6c49 0 93 -42 97 -87v-9c0 -51 -34 -86 -105 -106c17 -24 51 -36 102 -36c62 0 116 43 140 85 c9 16 13 41 13 74c0 20 -1 42 -5 67c-8 53 -18 106 -26 159zM461 939c-95 0 -135 -175 -135 -286c0 -24 2 -48 5 -71c50 39 92 82 127 128c40 53 60 100 60 140v8c-4 53 -22 81 -55 81h-2zM406 119l54 -326c73 25 110 78 110 161c0 7 0 15 -1 23c-7 95 -57 142 -151 142h-12 zM382 117c-72 -2 -128 -47 -128 -120v-7c2 -46 43 -99 75 -115c-3 -2 -7 -5 -10 -10c-70 33 -116 88 -123 172v11c0 68 44 126 88 159c23 17 49 29 78 36l-29 170c-21 -13 -52 -37 -92 -73c-50 -44 -86 -84 -109 -119c-45 -69 -67 -130 -67 -182v-13c5 -68 35 -127 93 -176 s125 -73 203 -73c25 0 50 3 75 9c-19 111 -36 221 -54 331z" />
      </g>
      <g id="E262-i1uw1yk9">
         <path transform="scale(1,-1)" d="M136 186v169h17v-164l44 14v-91l-44 -14v-165l44 12v-91l-44 -13v-155h-17v150l-76 -22v-155h-17v149l-43 -13v90l43 14v167l-43 -14v92l43 13v169h17v-163zM60 73v-167l76 22v168z" />
      </g>
      <g id="E084-i1uw1yk9">
         <path transform="scale(1,-1)" d="M20 -78c84 97 114 180 134 329h170c-13 -32 -82 -132 -99 -151l-84 -97c-33 -36 -59 -63 -80 -81h162v102l127 123v-225h57v-39h-57v-34c0 -43 19 -65 57 -65v-34h-244v36c48 0 60 26 60 70v27h-203v39z" />
      </g>
      <g id="E0A3-i1uw1yk9">
         <path transform="scale(1,-1)" d="M278 64c0 22 -17 39 -43 39c-12 0 -26 -3 -41 -10c-85 -43 -165 -94 -165 -156c5 -25 15 -32 49 -32c67 11 200 95 200 159zM0 -36c0 68 73 174 200 174c66 0 114 -39 114 -97c0 -84 -106 -173 -218 -173c-64 0 -96 32 -96 96z" />
      </g>
      <g id="E0A4-i1uw1yk9">
         <path transform="scale(1,-1)" d="M0 -39c0 68 73 172 200 172c66 0 114 -37 114 -95c0 -84 -106 -171 -218 -171c-64 0 -96 30 -96 94z" />
      </g>
      <g id="E520-i1uw1yk9">
         <path transform="scale(1,-1)" d="M23 124h-23c22 43 43 76 62 101s45 37 76 38c6 0 12 -4 18 -13c7 -7 10 -16 10 -27l24 14l25 13c12 5 24 7 37 7c24 0 43 -9 58 -28s22 -44 23 -77c0 -14 -1 -27 -3 -38s-5 -21 -10 -29s-11 -17 -19 -27c-14 -18 -30 -32 -47 -42s-35 -15 -54 -15c-9 0 -20 3 -33 10 c-5 3 -10 7 -15 10s-9 8 -13 14l-56 -158l-3 -4c3 -7 7 -10 12 -11h32v-29h-173v29h21c4 0 9 2 14 5c4 4 7 9 9 14l119 331v6l-3 10l-6 3c-9 0 -17 -4 -25 -12s-16 -18 -23 -31l-11 -17l-10 -20zM197 201c-12 -21 -22 -45 -29 -72c-7 -30 -10 -51 -10 -62 c0 -24 7 -36 22 -36c13 0 23 2 31 7s15 11 21 20c10 17 15 26 16 28c5 11 8 26 10 44s3 31 4 39c0 7 -1 13 -2 18s-3 9 -6 14c-5 9 -15 14 -28 14c-14 0 -24 -5 -29 -14z" />
      </g>
      <g id="E261-i1uw1yk9">
         <path transform="scale(1,-1)" d="M0 -188v539h18v-191l139 22v-533h-17v186zM18 -100l122 17v176l-122 -19v-174z" />
      </g>
      <g id="E240-i1uw1yk9">
         <path transform="scale(1,-1)" d="M179 -646c15 29 29 55 46 102c18 49 30 108 30 138c0 105 -80 173 -168 200c-18 5 -47 9 -87 16v190h22c8 0 33 -61 71 -95c4 -3 -2 3 61 -56c62 -58 122 -137 122 -241c0 -38 -13 -106 -35 -163c-20 -51 -43 -99 -66 -132c-6 -5 -10 -7 -13 -7s-5 2 -5 5l4 10 c1 3 14 25 18 33z" />
      </g>
   </defs>
   <style type="text/css">#i1uw1yk9 g.ending, #i1uw1yk9 g.fing, #i1uw1yk9 g.reh, #i1uw1yk9 g.tempo {font-weight:bold;}#i1uw1yk9 g.dir, #i1uw1yk9 g.dynam, #i1uw1yk9 g.mNum {font-style:italic;}#i1uw1yk9 g.label {font-weight:normal;}#i1uw1yk9 ellipse, #i1uw1yk9 path, #i1uw1yk9 polygon, #i1uw1yk9 polyline, #i1uw1yk9 rect {stroke:currentColor}</style>
   <svg class="definition-scale" color="black" font-family="Times, serif" viewBox="0 0 11020 5810">
      <g class="page-margin" transform="translate(300, 300)">
         <g id="m1ggvqci" class="mdiv pageMilestone" />
         <g id="nqeeqks" class="score pageMilestone" />
         <g id="v9r49py" class="system">
            <g id="psu8046" class="section systemMilestone" />
            <g id="o2nhcnj" class="section systemMilestone" />
            <g id="c13vnvlr" class="measure">
               <g id="m9ns5gi" class="staff">
                  <path d="M0 1387 L4958 1387" stroke-width="13" />
                  <path d="M0 1567 L4958 1567" stroke-width="13" />
                  <path d="M0 1747 L4958 1747" stroke-width="13" />
                  <path d="M0 1927 L4958 1927" stroke-width="13" />
                  <path d="M0 2107 L4958 2107" stroke-width="13" />
                  <g id="m1myaiql" class="clef">
                     <use xlink:href="#E050-i1uw1yk9" transform="translate(90, 1927) scale(0.72, 0.72)" />
                  </g>
                  <g id="n13a6va8" class="keySig">
                     <g id="o114xfgz" class="keyAccid">
                        <use xlink:href="#E262-i1uw1yk9" transform="translate(735, 1387) scale(0.72, 0.72)" />
                     </g>
                     <g id="pft9v1k" class="keyAccid">
                        <use xlink:href="#E262-i1uw1yk9" transform="translate(913, 1657) scale(0.72, 0.72)" />
                     </g>
                     <g id="qcnktiu" class="keyAccid">
                        <use xlink:href="#E262-i1uw1yk9" transform="translate(1091, 1297) scale(0.72, 0.72)" />
                     </g>
                  </g>
                  <g id="recidfj" class="meterSig">
                     <use xlink:href="#E084-i1uw1yk9" transform="translate(1398, 1567) scale(0.72, 0.72)" />
                     <use xlink:href="#E084-i1uw1yk9" transform="translate(1398, 1927) scale(0.72, 0.72)" />
                  </g>
                  <g class="ledgerLines above">
                     <path d="M1912 1207 L2234 1207" stroke-width="22" />
                     <path d="M3016 1207 L3338 1207" stroke-width="22" />
                     <path d="M3660 1207 L3946 1207" stroke-width="22" />
                     <path d="M3976 1207 L4262 1207" stroke-width="22" />
                     <path d="M4567 1207 L4889 1207" stroke-width="22" />
                     <path d="M1912 1027 L2234 1027" stroke-width="22" />
                     <path d="M3016 1027 L3338 1027" stroke-width="22" />
                     <path d="M4567 1027 L4889 1027" stroke-width="22" />
                  </g>
                  <g id="u1s8bo58" class="layer">
                     <g id="v1rqryx2" class="note">
                        <g class="notehead">
                           <use xlink:href="#E0A3-i1uw1yk9" transform="translate(1960, 1027) scale(0.72, 0.72)" />
                        </g>
                        <g id="k1e7vh9q" class="stem">
                           <path d="M1969 1052 L1969 1747" stroke-width="18" />
                        </g>
                        <g id="w1pmr925" class="accid" />
                     </g>
                     <g id="asr1url" class="beam">
                        <polygon points="3064,1747 3708,1927 3708,1837 3064,1657" />
                        <polygon points="3482,1733 3708,1792 3708,1702 3482,1643" />
                        <g id="b1wd3xlx" class="note">
                           <g class="notehead">
                              <use xlink:href="#E0A4-i1uw1yk9" transform="translate(3064, 1027) scale(0.72, 0.72)" />
                           </g>
                           <g id="mq4v6br" class="dots">
                              <ellipse cx="3380" cy="937" rx="36" ry="36" />
                           </g>
                           <g id="l1va6owt" class="stem">
                              <path d="M3073 1055 L3073 1729" stroke-width="18" />
                           </g>
                           <g id="c1tt9fo0" class="accid" />
                        </g>
                        <g id="d3wo9j" class="note">
                           <g class="notehead">
                              <use xlink:href="#E0A4-i1uw1yk9" transform="translate(3690, 1117) scale(0.72, 0.72)" />
                           </g>
                           <g id="n1tujdbw" class="stem">
                              <path d="M3699 1145 L3699 1909" stroke-width="18" />
                           </g>
                           <g id="e12di1iy" class="accid">
                              <use xlink:href="#E262-i1uw1yk9" transform="translate(3478, 1117) scale(0.72, 0.72)" />
                           </g>
                        </g>
                     </g>
                     <g id="f7lisc2" class="beam">
                        <polygon points="4006,1927 4633,1747 4633,1657 4006,1837" />
                        <polygon points="4407,1674 4633,1612 4633,1522 4407,1584" />
                        <g id="g1dbrrs1" class="note">
                           <g class="notehead">
                              <use xlink:href="#E0A4-i1uw1yk9" transform="translate(4006, 1117) scale(0.72, 0.72)" />
                           </g>
                           <g id="p1eymtno" class="dots">
                              <ellipse cx="4322" cy="1117" rx="36" ry="36" />
                           </g>
                           <g id="os1981n" class="stem">
                              <path d="M4015 1145 L4015 1909" stroke-width="18" />
                           </g>
                           <g id="hx7xlbn" class="accid" />
                        </g>
                        <g id="j11ic11c" class="note">
                           <g class="notehead">
                              <use xlink:href="#E0A4-i1uw1yk9" transform="translate(4615, 1027) scale(0.72, 0.72)" />
                           </g>
                           <g id="q1pfnmjm" class="stem">
                              <path d="M4624 1055 L4624 1729" stroke-width="18" />
                           </g>
                           <g id="kc6otdv" class="accid" />
                        </g>
                     </g>
                  </g>
               </g>
               <g id="n1ykg0ep" class="dynam">
                  <use xlink:href="#E520-i1uw1yk9" transform="translate(1960, 2341) scale(0.72, 0.72)" />
               </g>
               <g id="p13faak0" class="dir">
                  <text x="1960" y="280" font-size="0px">
                     <tspan id="qa4o4wi" class="rend" font-style="normal" font-weight="bold">
                        <tspan id="e1glrpjg" class="text">
                           <tspan font-size="405px">Moderato espressivo</tspan>
                        </tspan>
                     </tspan>
                  </text>
               </g>
               <g id="s1oaby7k" class="dir">
                  <text x="1960" y="2771" font-size="0px">
                     <tspan id="g3fzavn" class="text">
                        <tspan font-size="405px">espr.</tspan>
                     </tspan>
                  </text>
               </g>
               <g id="xtu1lhh" class="slur">
                  <path d="M2073,690 C4266,147 7323,491 8632,869 C7312,550 4269,206 2073,690" stroke-width="9" stroke-linecap="round" stroke-linejoin="round" />
               </g>
               <g id="ykk5rby" class="slur">
                  <path d="M2073,825 C2541,551 3361,593 3801,913 C3342,652 2554,612 2073,825" stroke-width="9" stroke-linecap="round" stroke-linejoin="round" />
               </g>
               <g id="z12aul0r" class="tie">
                  <path d="M2231,982 C2421,830 2828,830 3019,982 C2814,876 2435,876 2231,982" stroke-width="9" stroke-linecap="round" stroke-linejoin="round" />
               </g>
               <g id="isdrp" class="slur">
                  <path d="M4119,914 C4198,751 4599,694 4726,826 C4583,754 4231,805 4119,914" stroke-width="9" stroke-linecap="round" stroke-linejoin="round" />
               </g>
               <g id="kcwbhtn" class="barLine">
                  <path d="M4945 1387 L4945 2107" stroke-width="27" />
               </g>
            </g>
            <g id="l1m807rq" class="measure">
               <g id="u1s7kpf1" class="staff">
                  <path d="M4958 1387 L8865 1387" stroke-width="13" />
                  <path d="M4958 1567 L8865 1567" stroke-width="13" />
                  <path d="M4958 1747 L8865 1747" stroke-width="13" />
                  <path d="M4958 1927 L8865 1927" stroke-width="13" />
                  <path d="M4958 2107 L8865 2107" stroke-width="13" />
                  <g class="ledgerLines above">
                     <path d="M5090 1207 L5412 1207" stroke-width="22" />
                     <path d="M5717 1207 L6003 1207" stroke-width="22" />
                     <path d="M6033 1207 L6319 1207" stroke-width="22" />
                     <path d="M6642 1207 L6928 1207" stroke-width="22" />
                     <path d="M6958 1207 L7244 1207" stroke-width="22" />
                     <path d="M8474 1207 L8796 1207" stroke-width="22" />
                     <path d="M5090 1027 L5412 1027" stroke-width="22" />
                     <path d="M5717 1027 L6003 1027" stroke-width="22" />
                     <path d="M6033 1027 L6319 1027" stroke-width="22" />
                     <path d="M6642 1027 L6928 1027" stroke-width="22" />
                     <path d="M6958 1027 L7244 1027" stroke-width="22" />
                  </g>
                  <g id="v14acw3t" class="layer">
                     <g id="w1tsrgrs" class="beam">
                        <polygon points="5138,1927 5765,1747 5765,1657 5138,1837" />
                        <polygon points="5539,1674 5765,1612 5765,1522 5539,1584" />
                        <g id="xevrjnw" class="note">
                           <g class="notehead">
                              <use xlink:href="#E0A4-i1uw1yk9" transform="translate(5138, 1027) scale(0.72, 0.72)" />
                           </g>
                           <g id="s13djqk8" class="dots">
                              <ellipse cx="5454" cy="937" rx="36" ry="36" />
                           </g>
                           <g id="rz9ho2v" class="stem">
                              <path d="M5147 1055 L5147 1909" stroke-width="18" />
                           </g>
                           <g id="y1nxhfda" class="accid" />
                        </g>
                        <g id="axcdune" class="note">
                           <g class="notehead">
                              <use xlink:href="#E0A4-i1uw1yk9" transform="translate(5747, 937) scale(0.72, 0.72)" />
                           </g>
                           <g id="t1szl9wo" class="stem">
                              <path d="M5756 965 L5756 1729" stroke-width="18" />
                           </g>
                           <g id="bvg5dah" class="accid" />
                        </g>
                     </g>
                     <g id="c2jfeo6" class="beam">
                        <polygon points="6063,1747 6690,1927 6690,1837 6063,1657" />
                        <polygon points="6464,1731 6690,1792 6690,1702 6464,1641" />
                        <g id="d1cg6wnu" class="note">
                           <g class="notehead">
                              <use xlink:href="#E0A4-i1uw1yk9" transform="translate(6063, 937) scale(0.72, 0.72)" />
                           </g>
                           <g id="v11khqyt" class="dots">
                              <ellipse cx="6379" cy="937" rx="36" ry="36" />
                           </g>
                           <g id="u1fy593c" class="stem">
                              <path d="M6072 965 L6072 1729" stroke-width="18" />
                           </g>
                           <g id="e1tbh8ve" class="accid" />
                        </g>
                        <g id="g10e1cnw" class="note">
                           <g class="notehead">
                              <use xlink:href="#E0A4-i1uw1yk9" transform="translate(6672, 1027) scale(0.72, 0.72)" />
                           </g>
                           <g id="w51weah" class="stem">
                              <path d="M6681 1055 L6681 1909" stroke-width="18" />
                           </g>
                           <g id="h1emt67y" class="accid" />
                        </g>
                     </g>
                     <g id="i12btz8m" class="beam">
                        <polygon points="6988,1747 7615,1927 7615,1837 6988,1657" />
                        <polygon points="7389,1731 7615,1792 7615,1702 7389,1641" />
                        <g id="j9dcer6" class="note">
                           <g class="notehead">
                              <use xlink:href="#E0A4-i1uw1yk9" transform="translate(6988, 1027) scale(0.72, 0.72)" />
                           </g>
                           <g id="y1cafpzt" class="dots">
                              <ellipse cx="7304" cy="937" rx="36" ry="36" />
                           </g>
                           <g id="x1o893w5" class="stem">
                              <path d="M6997 1055 L6997 1729" stroke-width="18" />
                           </g>
                           <g id="k1f2k614" class="accid" />
                        </g>
                        <g id="mtd4eba" class="note">
                           <g class="notehead">
                              <use xlink:href="#E0A4-i1uw1yk9" transform="translate(7597, 1297) scale(0.72, 0.72)" />
                           </g>
                           <g id="zcm5k7m" class="stem">
                              <path d="M7606 1325 L7606 1909" stroke-width="18" />
                           </g>
                           <g id="nla0ska" class="accid" />
                        </g>
                     </g>
                     <g id="o191iamg" class="beam">
                        <polygon points="7913,1927 8540,1837 8540,1747 7913,1837" />
                        <polygon points="8314,1733 8540,1702 8540,1612 8314,1643" />
                        <g id="pbvebky" class="note">
                           <g class="notehead">
                              <use xlink:href="#E0A4-i1uw1yk9" transform="translate(7913, 1297) scale(0.72, 0.72)" />
                           </g>
                           <g id="b1251gb3" class="dots">
                              <ellipse cx="8229" cy="1297" rx="36" ry="36" />
                           </g>
                           <g id="aia3zm7" class="stem">
                              <path d="M7922 1325 L7922 1909" stroke-width="18" />
                           </g>
                           <g id="q1x0hwzx" class="accid" />
                        </g>
                        <g id="s1bzchxk" class="note">
                           <g class="notehead">
                              <use xlink:href="#E0A4-i1uw1yk9" transform="translate(8522, 1207) scale(0.72, 0.72)" />
                           </g>
                           <g id="cr2sdt6" class="stem">
                              <path d="M8531 1235 L8531 1819" stroke-width="18" />
                           </g>
                           <g id="t1fv0zzb" class="accid" />
                        </g>
                     </g>
                  </g>
               </g>
               <g id="z93z838" class="slur">
                  <path d="M5251,825 C5330,661 5732,602 5858,737 C5715,664 5364,717 5251,825" stroke-width="9" stroke-linecap="round" stroke-linejoin="round" />
               </g>
               <g id="fnxw3zd" class="slur">
                  <path d="M6176,735 C6299,602 6701,661 6783,825 C6667,717 6316,664 6176,735" stroke-width="9" stroke-linecap="round" stroke-linejoin="round" />
               </g>
               <g id="lhqobl1" class="slur">
                  <path d="M7101,825 C7269,659 7669,867 7708,1092 C7616,911 7275,727 7101,825" stroke-width="9" stroke-linecap="round" stroke-linejoin="round" />
               </g>
               <g id="rzvbgta" class="slur">
                  <path d="M8026,1094 C8105,928 8507,868 8633,1004 C8490,930 8139,983 8026,1094" stroke-width="9" stroke-linecap="round" stroke-linejoin="round" />
               </g>
               <g id="t1nlrbpw" class="barLine">
                  <path d="M8852 1387 L8852 2107" stroke-width="27" />
               </g>
            </g>
         </g>
         <g id="ydwtrhq" class="system">
            <g id="u7xidpo" class="measure">
               <g id="d2tgkvc" class="staff">
                  <path d="M0 3955 L4513 3955" stroke-width="13" />
                  <path d="M0 4135 L4513 4135" stroke-width="13" />
                  <path d="M0 4315 L4513 4315" stroke-width="13" />
                  <path d="M0 4495 L4513 4495" stroke-width="13" />
                  <path d="M0 4675 L4513 4675" stroke-width="13" />
                  <g id="ewb9r1c" class="clef">
                     <use xlink:href="#E050-i1uw1yk9" transform="translate(90, 4495) scale(0.72, 0.72)" />
                  </g>
                  <g id="f9i9gn4" class="keySig">
                     <g id="g1c08vnu" class="keyAccid">
                        <use xlink:href="#E262-i1uw1yk9" transform="translate(735, 3955) scale(0.72, 0.72)" />
                     </g>
                     <g id="hn2y3jl" class="keyAccid">
                        <use xlink:href="#E262-i1uw1yk9" transform="translate(913, 4225) scale(0.72, 0.72)" />
                     </g>
                     <g id="i17vvybo" class="keyAccid">
                        <use xlink:href="#E262-i1uw1yk9" transform="translate(1091, 3865) scale(0.72, 0.72)" />
                     </g>
                  </g>
                  <g class="ledgerLines above">
                     <path d="M3548 3775 L3870 3775" stroke-width="22" />
                  </g>
                  <g id="e1bx5em2" class="layer">
                     <g id="fnopgqo" class="note">
                        <g class="notehead">
                           <use xlink:href="#E0A3-i1uw1yk9" transform="translate(1660, 3955) scale(0.72, 0.72)" />
                        </g>
                        <g id="d18mr2kv" class="stem">
                           <path d="M1669 3980 L1669 4585" stroke-width="18" />
                        </g>
                        <g id="g1x234l2" class="accid">
                           <use xlink:href="#E261-i1uw1yk9" transform="translate(1502, 3955) scale(0.72, 0.72)" />
                        </g>
                     </g>
                     <g id="k1c0bqe0" class="beam">
                        <polygon points="2664,4540 4088,4540 4088,4450 2664,4450" />
                        <g id="l1ktd2f1" class="note">
                           <g class="notehead">
                              <use xlink:href="#E0A4-i1uw1yk9" transform="translate(2664, 3955) scale(0.72, 0.72)" />
                           </g>
                           <g id="ev1ml00" class="stem">
                              <path d="M2673 3983 L2673 4522" stroke-width="18" />
                           </g>
                           <g id="mvk9rwn" class="accid" />
                        </g>
                        <g id="n2zp0fa" class="note">
                           <g class="notehead">
                              <use xlink:href="#E0A4-i1uw1yk9" transform="translate(3166, 3955) scale(0.72, 0.72)" />
                           </g>
                           <g id="f13j7d1m" class="stem">
                              <path d="M3175 3983 L3175 4522" stroke-width="18" />
                           </g>
                           <g id="o16ao0rs" class="accid">
                              <use xlink:href="#E262-i1uw1yk9" transform="translate(2980, 3955) scale(0.72, 0.72)" />
                           </g>
                        </g>
                        <g id="p1g2yv11" class="note">
                           <g class="notehead">
                              <use xlink:href="#E0A4-i1uw1yk9" transform="translate(3596, 3775) scale(0.72, 0.72)" />
                           </g>
                           <g id="gfvybx0" class="stem">
                              <path d="M3605 3803 L3605 4522" stroke-width="18" />
                           </g>
                           <g id="q1lzr95x" class="accid" />
                        </g>
                        <g id="r1dp1lvm" class="note">
                           <g class="notehead">
                              <use xlink:href="#E0A4-i1uw1yk9" transform="translate(4070, 3865) scale(0.72, 0.72)" />
                           </g>
                           <g id="hxl4a0i" class="stem">
                              <path d="M4079 3893 L4079 4522" stroke-width="18" />
                           </g>
                           <g id="s5muyxt" class="accid">
                              <use xlink:href="#E261-i1uw1yk9" transform="translate(3912, 3865) scale(0.72, 0.72)" />
                           </g>
                        </g>
                     </g>
                  </g>
               </g>
               <g id="hql18u0" class="slur">
                  <path d="M1773,3617 C2543,3155 7930,2883 8388,3992 C7895,2940 2562,3219 1773,3617" stroke-width="9" stroke-linecap="round" stroke-linejoin="round" />
               </g>
               <g id="i1kujf56" class="slur">
                  <path d="M1773,3752 C1983,3524 2566,3524 2777,3752 C2543,3582 2006,3582 1773,3752" stroke-width="9" stroke-linecap="round" stroke-linejoin="round" />
               </g>
               <g id="jo7c4az" class="tie">
                  <path d="M1931,3910 C2094,3756 2455,3756 2619,3910 C2438,3805 2111,3805 1931,3910" stroke-width="9" stroke-linecap="round" stroke-linejoin="round" />
               </g>
               <g id="c11f6i8i" class="barLine">
                  <path d="M4500 3955 L4500 4675" stroke-width="27" />
               </g>
            </g>
            <g id="tn4bllx" class="measure">
               <g id="c1d8yc3y" class="staff">
                  <path d="M4513 3955 L8721 3955" stroke-width="13" />
                  <path d="M4513 4135 L8721 4135" stroke-width="13" />
                  <path d="M4513 4315 L8721 4315" stroke-width="13" />
                  <path d="M4513 4495 L8721 4495" stroke-width="13" />
                  <path d="M4513 4675 L8721 4675" stroke-width="13" />
                  <g class="ledgerLines above">
                     <path d="M5735 3775 L6057 3775" stroke-width="22" />
                  </g>
                  <g id="dqk9tc4" class="layer">
                     <g id="e1ndlhqm" class="beam">
                        <polygon points="4851,4540 6275,4540 6275,4450 4851,4450" />
                        <g id="fs1j48w" class="note">
                           <g class="notehead">
                              <use xlink:href="#E0A4-i1uw1yk9" transform="translate(4851, 3955) scale(0.72, 0.72)" />
                           </g>
                           <g id="i1ayh1co" class="stem">
                              <path d="M4860 3983 L4860 4522" stroke-width="18" />
                           </g>
                           <g id="g1m2b5zx" class="accid">
                              <use xlink:href="#E261-i1uw1yk9" transform="translate(4693, 3955) scale(0.72, 0.72)" />
                           </g>
                        </g>
                        <g id="h1794aw8" class="note">
                           <g class="notehead">
                              <use xlink:href="#E0A4-i1uw1yk9" transform="translate(5353, 3955) scale(0.72, 0.72)" />
                           </g>
                           <g id="je9mghc" class="stem">
                              <path d="M5362 3983 L5362 4522" stroke-width="18" />
                           </g>
                           <g id="i19if20i" class="accid">
                              <use xlink:href="#E262-i1uw1yk9" transform="translate(5167, 3955) scale(0.72, 0.72)" />
                           </g>
                        </g>
                        <g id="j14vns3t" class="note">
                           <g class="notehead">
                              <use xlink:href="#E0A4-i1uw1yk9" transform="translate(5783, 3775) scale(0.72, 0.72)" />
                           </g>
                           <g id="k1jyoya5" class="stem">
                              <path d="M5792 3803 L5792 4522" stroke-width="18" />
                           </g>
                           <g id="kt6bjt9" class="accid" />
                        </g>
                        <g id="l106qjbm" class="note">
                           <g class="notehead">
                              <use xlink:href="#E0A4-i1uw1yk9" transform="translate(6257, 3865) scale(0.72, 0.72)" />
                           </g>
                           <g id="lbepnjb" class="stem">
                              <path d="M6266 3893 L6266 4522" stroke-width="18" />
                           </g>
                           <g id="m37ri33" class="accid">
                              <use xlink:href="#E261-i1uw1yk9" transform="translate(6099, 3865) scale(0.72, 0.72)" />
                           </g>
                        </g>
                     </g>
                     <g id="nonsxyy" class="beam">
                        <polygon points="6687,4900 8296,4900 8296,4810 6687,4810" />
                        <g id="o14pyjn2" class="note">
                           <g class="notehead">
                              <use xlink:href="#E0A4-i1uw1yk9" transform="translate(6687, 4315) scale(0.72, 0.72)" />
                           </g>
                           <g id="m6c4om8" class="stem">
                              <path d="M6696 4343 L6696 4882" stroke-width="18" />
                           </g>
                           <g id="pbr5ky1" class="accid">
                              <use xlink:href="#E262-i1uw1yk9" transform="translate(6501, 4315) scale(0.72, 0.72)" />
                           </g>
                        </g>
                        <g id="q1mwti6" class="note">
                           <g class="notehead">
                              <use xlink:href="#E0A4-i1uw1yk9" transform="translate(7117, 4225) scale(0.72, 0.72)" />
                           </g>
                           <g id="nz2sn0i" class="stem">
                              <path d="M7126 4253 L7126 4882" stroke-width="18" />
                           </g>
                           <g id="r1iawf34" class="accid" />
                        </g>
                        <g id="s11nht2" class="note">
                           <g class="notehead">
                              <use xlink:href="#E0A4-i1uw1yk9" transform="translate(7433, 4045) scale(0.54, 0.54)" />
                           </g>
                           <g id="o104q4j5" class="stem">
                              <path d="M7593 4024 L7593 3663" stroke-width="18" />
                              <path d="M7526 3931 L7727 3730" stroke-width="21" />
                              <g id="pqq5nyw" class="flag">
                                 <use xlink:href="#E240-i1uw1yk9" transform="translate(7584, 3663) scale(0.54, 0.54)" />
                              </g>
                           </g>
                           <g id="t1t722qa" class="accid" />
                        </g>
                        <g id="v1wefmyi" class="note">
                           <g class="notehead">
                              <use xlink:href="#E0A4-i1uw1yk9" transform="translate(7804, 4135) scale(0.72, 0.72)" />
                           </g>
                           <g id="q1p2bv2g" class="stem">
                              <path d="M7813 4163 L7813 4882" stroke-width="18" />
                           </g>
                           <g id="wh8k6q" class="accid" />
                        </g>
                        <g id="xq0th8k" class="note">
                           <g class="notehead">
                              <use xlink:href="#E0A4-i1uw1yk9" transform="translate(8278, 4315) scale(0.72, 0.72)" />
                           </g>
                           <g id="r5aszxa" class="stem">
                              <path d="M8287 4343 L8287 4882" stroke-width="18" />
                           </g>
                           <g id="y7ixw7p" class="accid">
                              <use xlink:href="#E261-i1uw1yk9" transform="translate(8120, 4315) scale(0.72, 0.72)" />
                           </g>
                        </g>
                     </g>
                  </g>
               </g>
               <g id="u1sc199d" class="slur">
                  <path d="M7517,4202 C7565,4263 7698,4287 7766,4245 C7724,4353 7517,4316 7517,4202" stroke-width="9" stroke-linecap="round" stroke-linejoin="round" />
               </g>
               <g id="b1ihqvsu" class="barLine">
                  <path d="M8708 3955 L8708 4675" stroke-width="27" />
               </g>
            </g>
            <g id="z1yq4dhw" class="measure">
               <g id="ji57t1" class="staff">
                  <path d="M8721 3955 L10422 3955" stroke-width="13" />
                  <path d="M8721 4135 L10422 4135" stroke-width="13" />
                  <path d="M8721 4315 L10422 4315" stroke-width="13" />
                  <path d="M8721 4495 L10422 4495" stroke-width="13" />
                  <path d="M8721 4675 L10422 4675" stroke-width="13" />
                  <g id="knwl8pw" class="layer">
                     <g id="lkhy4yd" class="note">
                        <g class="notehead">
                           <use xlink:href="#E0A3-i1uw1yk9" transform="translate(8901, 4405) scale(0.72, 0.72)" />
                        </g>
                        <g id="s3bswbw" class="stem">
                           <path d="M9118 4377 L9118 3775" stroke-width="18" />
                        </g>
                        <g id="mnukq6" class="accid" />
                     </g>
                  </g>
               </g>
               <g id="n1xqcxla" class="slur">
                  <path d="M9014,4607 C9340,4891 10030,4979 10420,4785 C10043,5041 9312,4947 9014,4607" stroke-width="9" stroke-linecap="round" stroke-linejoin="round" />
               </g>
               <g id="h18oegxj" class="barLine" />
            </g>
            <g id="v1qkfgs" class="systemMilestoneEnd o2nhcnj" />
            <g id="w8p850b" class="systemMilestoneEnd psu8046" />
         </g>
         <g id="x1f8ng7o" class="pageMilestoneEnd nqeeqks" />
         <g id="y1xe7wu5" class="pageMilestoneEnd m1ggvqci" />
      </g>
   </svg>
</svg>
