<svg xmlns="http://www.w3.org/2000/svg" xmlns:xlink="http://www.w3.org/1999/xlink" viewBox="0 0 195.06 116.27" xmlns:v="https://vecta.io/nano"><g fill="#231815"><path d="M58.17 91.83c3.24 0 5.08.97 5.98 1.91.83.83 1.4 2.16 1.4 3.82 0 1.12-.29 2.48-.83 3.46-.36.65-1.08 1.48-2.23 2.02.79.32 1.73.86 2.41 1.55 1.08 1.12 1.48 2.41 1.48 4 0 2.56-.97 4.25-2.2 5.29-2.09 1.8-5 1.98-6.62 1.98H51.3l2.95-24.01h3.92zm-3.89 21.49h3.24c1.51 0 3.42-.25 4.5-1.04.86-.61 1.66-1.8 1.66-3.56 0-1.33-.43-2.48-1.76-3.24-1.12-.65-2.56-.72-3.89-.72h-2.7l-1.04 8.57zm1.33-10.94h1.73c1.33 0 3.02-.14 4.25-1.22 1.08-.94 1.3-2.2 1.3-3.2 0-.68-.14-1.98-1.33-2.81-.79-.58-2.09-.79-3.2-.79H56.6l-.97 8.03zm21.78-10.55l-2.63 21.49h6.62l-.32 2.52h-9.29l2.95-24.01h2.66zm11.88 21.31c-1.48-1.51-3.1-4.1-3.1-7.96 0-4.93 2.16-8.13 4.1-9.97 2.63-2.52 5.87-3.78 9.86-3.78 2.63 0 5.58.58 8.06 3.02 1.55 1.51 3.17 4.03 3.17 7.85s-1.33 7.56-4.03 10.19c-2.09 2.02-5.51 3.78-10.08 3.78-2.63 0-5.62-.68-7.99-3.13zm2.99-16.34c-1.69 1.58-3.31 4.21-3.31 7.88 0 2.95 1.08 5.18 2.48 6.62 1.26 1.3 3.2 2.45 6.12 2.45 3.24 0 6.01-1.15 7.77-2.88 2.12-2.05 3.28-5.22 3.28-8.06s-1.04-4.93-2.52-6.41c-1.19-1.19-3.17-2.45-6.23-2.45s-5.72 1.12-7.6 2.84zm37.8 6.98h10.01l-.07.58c-.29 2.23-.94 5.58-3.53 8.35-2.45 2.63-5.47 3.56-8.78 3.56-3.02 0-5.9-.86-8.21-3.17-1.76-1.76-3.17-4.36-3.17-8.03 0-4.28 1.76-7.6 3.96-9.79 2.88-2.92 6.19-3.85 9.9-3.85 2.3 0 4.32.4 6.3 1.66 1.69 1.04 2.74 2.38 3.42 3.56l-2.2 1.8c-.65-1.3-1.55-2.34-2.92-3.2-1.4-.9-2.81-1.3-4.64-1.3-3.92 0-6.48 1.62-7.88 2.99-2.2 2.2-3.2 5.36-3.2 8.06 0 2.41.94 4.72 2.48 6.3 1.91 1.98 4.25 2.45 6.41 2.45 1.98 0 4.39-.36 6.41-2.45 1.37-1.37 2.2-3.28 2.56-5h-7.13l.29-2.52zM101.7 9.05c0-4.55 3.54-7.89 7.93-7.89s7.93 3.34 7.93 7.89-3.52 7.89-7.93 7.89-7.93-3.36-7.93-7.89zm1.74 0c0 3.5 2.77 6.29 6.19 6.29s6.19-2.79 6.19-6.29-2.77-6.29-6.19-6.29-6.19 2.79-6.19 6.29z"/><use xlink:href="#B"/><path d="M135.96 9.83c-.87-1.1-2.13-1.42-2.97-1.42-1.76 0-3.36 1.23-3.36 3.54s1.65 3.52 3.34 3.52c.98 0 2.19-.43 3.06-1.49v1.97c-1.03.75-2.13.98-3.02.98-2.95 0-5.07-2.1-5.07-4.96s2.15-5.03 5.07-5.03c1.51 0 2.49.59 2.95.91v1.97zm3.4-9.83h1.65v8.27a3.34 3.34 0 0 1 2.72-1.33c1.12 0 2.15.46 2.72 1.3.48.71.55 1.49.55 2.54v5.87h-1.65v-5.83c0-.57-.05-1.23-.43-1.74-.32-.41-.82-.69-1.55-.69-.57 0-1.19.16-1.67.73-.64.75-.69 1.87-.69 2.56v4.96h-1.65V0zm19.57 14.24c-.27.53-.69 1.1-1.17 1.53-.87.78-1.94 1.17-3.15 1.17-2.29 0-4.69-1.44-4.69-4.96 0-2.83 1.74-5.03 4.59-5.03 1.85 0 3.02.91 3.59 1.74.59.85.94 2.31.89 3.57h-7.38c.02 1.97 1.37 3.22 3.02 3.22a2.86 2.86 0 0 0 1.94-.69 3.85 3.85 0 0 0 .98-1.3l1.37.75zm-1.62-3.36c-.27-1.49-1.39-2.47-2.79-2.47s-2.54 1.05-2.79 2.47h5.58z"/><use xlink:href="#C"/><path d="M173.65 8.69v7.98H172V8.69h-1.01V7.18H172V3.75h1.65v3.43h1.65v1.51h-1.65z"/><use xlink:href="#B" x="57.53"/><path d="M193.42 7.18h1.65v9.49h-1.65v-1.33c-.55.71-1.58 1.6-3.25 1.6-2.4 0-4.62-1.69-4.62-5.03s2.19-4.96 4.62-4.96c1.83 0 2.81 1.01 3.25 1.58V7.18zm-6.17 4.73c0 2.03 1.14 3.57 3.11 3.57s3.15-1.67 3.15-3.54c0-2.45-1.69-3.52-3.15-3.52-1.62 0-3.11 1.19-3.11 3.5zm-73.07 21.44a7.58 7.58 0 0 0-1.99-1.42c-.8-.37-1.74-.59-2.63-.59-3.52 0-6.13 2.83-6.13 6.35 0 4.14 3.36 6.22 6.15 6.22 1.03 0 2.03-.3 2.83-.71.87-.43 1.49-1.01 1.76-1.28v2.1a7.95 7.95 0 0 1-4.59 1.49c-4.53 0-7.89-3.43-7.89-7.84s3.41-7.93 7.98-7.93c.91 0 2.67.11 4.5 1.51v2.1z"/><use xlink:href="#D"/><path d="M130.45 35.75h1.65v1.1a3.34 3.34 0 0 1 2.72-1.33c1.12 0 2.15.46 2.72 1.3.48.71.55 1.49.55 2.54v5.87h-1.65V39.4c0-.57-.05-1.23-.43-1.74-.32-.41-.82-.69-1.55-.69-.57 0-1.19.16-1.67.73-.64.75-.69 1.87-.69 2.56v4.96h-1.65v-9.49zm11.43 0l2.83 6.4 2.83-6.4h1.83l-4.66 10.1-4.66-10.1h1.83z"/><use xlink:href="#D" x="33.74"/><use xlink:href="#C" x="1.39" y="28.57"/><path d="M109.01 60.16v13.65h-1.69V60.16h-3.7v-1.6h9.1v1.6h-3.7z"/><use xlink:href="#E"/><path d="M128.42 57.14v10.7l3.47-3.52h2.15l-4.07 4.07 4.8 5.42h-2.15l-3.79-4.32-.41.41v3.91h-1.65V57.15h1.65zm11.81 15.77l-4.37-8.59h1.87l3.36 6.79 3.09-6.79h1.83l-6.97 14.74h-1.83l3.02-6.15z"/><use xlink:href="#E" x="33.46"/></g><g stroke-miterlimit="10" fill="none" stroke="#231815" stroke-width="1.76"><path d="M15.82 34.46H68.2M8.35 47.4h67.24m-52.3-25.88h37.44"/><path d="M53.18 73.28L71.9 40.86M23.29 73.28l33.66-58.3m-18.71 58.3l26.19-45.36"/><path d="M45.71 73.14L19.6 27.92m41.13 45.36l-33.66-58.3"/></g><path d="M83.14 60.34H.88l33.66-58.3 41.13 71.24H8.35L49.48 2.04l33.66 58.3z" fill="none" stroke="#231815" stroke-width="1.76" stroke-linejoin="round"/><path d="M30.85 73.28L12.13 40.86" stroke-miterlimit="10" fill="none" stroke="#231815" stroke-width="1.76"/><defs ><path id="B" d="M121.03 7.18h1.65v1.03c.16-.25.87-1.26 2.15-1.26.5 0 1.05.18 1.46.39l-.78 1.49c-.37-.25-.71-.32-.96-.32-.66 0-1.07.27-1.33.59-.27.37-.55 1.01-.55 2.56v5.01h-1.65V7.18z"/><path id="C" d="M166.38 9.37c-.23-.55-.71-.96-1.33-.96s-1.14.34-1.14 1.07c0 .69.46.89 1.53 1.35 1.37.57 2.01 1.01 2.38 1.46.41.5.5 1.01.5 1.53 0 1.99-1.44 3.11-3.27 3.11-.39 0-2.51-.05-3.31-2.42l1.42-.59c.18.5.73 1.55 1.92 1.55 1.07 0 1.55-.8 1.55-1.51 0-.89-.64-1.19-1.53-1.58-1.14-.5-1.87-.87-2.31-1.39-.37-.46-.43-.91-.43-1.39 0-1.67 1.17-2.65 2.77-2.65.5 0 1.85.09 2.61 1.71l-1.35.71z"/><path id="D" d="M124.94 35.75h1.65v9.49h-1.65v-1.33c-.55.71-1.58 1.6-3.25 1.6-2.4 0-4.62-1.69-4.62-5.03s2.19-4.96 4.62-4.96c1.83 0 2.81 1.01 3.25 1.58v-1.35zm-6.17 4.73c0 2.03 1.14 3.57 3.11 3.57s3.15-1.67 3.15-3.54c0-2.45-1.69-3.52-3.15-3.52-1.62 0-3.11 1.19-3.11 3.5z"/><path id="E" d="M113.86,69.1c0-2.88,2.13-5.01,5.03-5.01s5.03,2.13,5.03,5.01-2.15,4.98-5.03,4.98-5.03-2.1-5.03-4.98Zm1.69,0c0,2.33,1.65,3.52,3.34,3.52s3.34-1.21,3.34-3.52-1.6-3.54-3.34-3.54-3.34,1.23-3.34,3.54Z"/></defs></svg>