<svg xmlns="http://www.w3.org/2000/svg" xmlns:xlink="http://www.w3.org/1999/xlink" viewBox="0 0 636.16 124.52" xmlns:v="https://vecta.io/nano"><g fill="#231815"><path d="M160.18,14.25c0-7.16,5.58-12.42,12.49-12.42s12.49,5.26,12.49,12.42-5.54,12.42-12.49,12.42-12.49-5.29-12.49-12.42Zm2.74,0c0,5.51,4.36,9.9,9.75,9.9s9.75-4.39,9.75-9.9-4.36-9.9-9.75-9.9-9.75,4.39-9.75,9.9Z"/><use xlink:href="#B"/><path d="M214.14 15.48c-1.37-1.73-3.35-2.23-4.68-2.23-2.77 0-5.29 1.94-5.29 5.58s2.59 5.54 5.26 5.54c1.55 0 3.46-.68 4.82-2.34v3.1a7.97 7.97 0 0 1-4.75 1.55c-4.64 0-7.99-3.31-7.99-7.81s3.38-7.92 7.99-7.92c2.38 0 3.92.94 4.64 1.44v3.1zM219.5 0h2.59v13.03c.47-.61 1.8-2.09 4.28-2.09 1.76 0 3.38.72 4.28 2.05.76 1.12.86 2.34.86 4v9.25h-2.59v-9.18c0-.9-.07-1.94-.68-2.74-.5-.65-1.3-1.08-2.45-1.08-.9 0-1.87.25-2.63 1.15-1.01 1.19-1.08 2.95-1.08 4.03v7.81h-2.59V0zm30.82 22.43c-.43.83-1.08 1.73-1.84 2.41-1.37 1.22-3.06 1.84-4.97 1.84-3.6 0-7.38-2.27-7.38-7.81 0-4.46 2.74-7.92 7.24-7.92 2.92 0 4.75 1.44 5.65 2.74.94 1.33 1.48 3.64 1.4 5.62h-11.63c.04 3.1 2.16 5.08 4.75 5.08 1.22 0 2.2-.36 3.06-1.08a6.12 6.12 0 0 0 1.55-2.05l2.16 1.19zm-2.56-5.29c-.43-2.34-2.2-3.89-4.39-3.89s-4 1.66-4.39 3.89h8.78z"/><use xlink:href="#C"/><path d="M273.5 13.68v12.56h-2.59V13.68h-1.58V11.3h1.58V5.9h2.59v5.4h2.59v2.38h-2.59z"/><use xlink:href="#B" x="90.61"/><path d="M304.64 11.3h2.59v14.94h-2.59v-2.09c-.86 1.12-2.48 2.52-5.11 2.52-3.78 0-7.27-2.66-7.27-7.92s3.46-7.81 7.27-7.81c2.88 0 4.43 1.58 5.11 2.48V11.3zm-9.72 7.45c0 3.2 1.8 5.62 4.9 5.62s4.97-2.63 4.97-5.58c0-3.85-2.66-5.54-4.97-5.54-2.56 0-4.9 1.87-4.9 5.51zM179.83 52.52c-.76-.76-1.91-1.66-3.13-2.23-1.26-.58-2.74-.94-4.14-.94-5.54 0-9.65 4.46-9.65 10.01 0 6.52 5.29 9.79 9.68 9.79 1.62 0 3.2-.47 4.46-1.12 1.37-.68 2.34-1.58 2.77-2.02v3.31c-2.66 1.91-5.44 2.34-7.23 2.34-7.13 0-12.42-5.4-12.42-12.35s5.36-12.49 12.56-12.49c1.44 0 4.21.18 7.09 2.38v3.31z"/><use xlink:href="#D"/><path d="M205.46 56.3h2.59v1.73c.47-.61 1.8-2.09 4.28-2.09 1.76 0 3.38.72 4.28 2.05.76 1.12.86 2.34.86 4v9.25h-2.59v-9.18c0-.9-.07-1.94-.68-2.74-.5-.65-1.3-1.08-2.45-1.08-.9 0-1.87.25-2.63 1.15-1.01 1.19-1.08 2.95-1.08 4.03v7.81h-2.59V56.29zm18 0l4.46 10.08 4.46-10.08h2.88l-7.34 15.91-7.34-15.91h2.88z"/><use xlink:href="#D" x="53.13"/><use xlink:href="#C" x="2.2" y="45"/><path d="M171.7 94.75v21.49h-2.66V94.75h-5.83v-2.52h14.33v2.52h-5.83z"/><use xlink:href="#E"/><path d="M202.26 90v16.85l5.47-5.54h3.38l-6.41 6.41 7.56 8.53h-3.38l-5.98-6.8-.65.65v6.16h-2.59V90.02h2.59zm18.61 24.84l-6.88-13.53h2.95l5.29 10.69 4.86-10.69h2.88l-10.98 23.22h-2.88l4.75-9.68z"/><use xlink:href="#E" x="52.7"/></g><g fill="none" stroke="#231815" stroke-width="2.77"><g stroke-miterlimit="10"><path d="M24.92 54.28h82.5M13.15 74.66h105.91M36.69 33.89h58.96"/><path d="M83.76 115.42l29.48-51.06m-76.55 51.06l53.02-91.83m-29.49 91.83l41.25-71.45"/><path d="M71.99 115.2L30.87 43.97m64.78 71.45L42.64 23.59"/></g><path d="M130.96 95.04H1.39L54.4 3.21l64.79 112.21H13.15L77.94 3.21l53.02 91.83z" stroke-linejoin="round"/><path d="M48.58 115.42L19.1 64.36" stroke-miterlimit="10"/></g><path d="M351.53 26.71h15.36c3.6 0 12 .36 17.16 5.4 2.88 2.76 4.8 7.2 4.8 12.6 0 2.16-.24 10.2-6.12 15.84-2.04 2.04-4.2 3.12-5.64 3.72 3.6.96 7.2 3 9.6 5.4 3.96 4.08 4.8 9.12 4.8 13.08 0 7.2-2.88 13.44-6.72 17.28-6.24 6.12-15.6 6.72-24.36 6.72h-18.72l9.84-80.04zm-3.96 75.24h13.44c8.52 0 15.24-.72 20.04-5.76 2.88-3 4.8-7.68 4.8-13.2 0-3.96-1.08-7.44-4.08-10.32-4.44-4.2-11.52-4.92-17.52-4.92h-12.48l-4.2 34.2zm4.8-39h11.52c3.84 0 9.96 0 14.76-4.8 2.76-2.76 4.68-7.2 4.68-12.84s-2.4-8.76-4.2-10.32c-3.6-3-9.48-3.48-13.08-3.48h-9.84l-3.84 31.44zm73.19-36.24l-9.24 75.24h22.32l-.6 4.8h-27.6l9.84-80.04h5.28zm103.8 9.96c7.08 7.32 9.84 16.08 9.84 25.8 0 11.64-3.36 23.4-13.44 33.24-9.6 9.36-20.28 12.36-32.04 12.36-10.44 0-19.32-2.4-27.24-10.2-4.44-4.32-10.92-12.96-10.92-26.64 0-10.92 4.44-23.16 13.68-32.52 10.56-10.68 22.92-13.08 32.4-13.08 12.72 0 21.72 4.92 27.72 11.04zm-7.56 55.56c7.92-7.92 12-19.44 12-29.52s-3.96-17.88-9.12-23.04c-5.28-5.28-13.32-9.24-23.52-9.24-13.08 0-22.08 5.52-27.84 11.16-8.4 8.28-12.24 19.2-12.24 29.16s3.84 17.64 8.76 22.92c6.6 6.96 14.52 9.6 23.16 9.6 12.96 0 22.56-4.92 28.8-11.04zm80.76-23.88h33.6c-.72 7.44-3.48 19.44-12.48 28.32-10.44 10.32-22.44 11.4-28.68 11.4-10.92 0-19.92-3-27.6-10.68-7.2-7.08-10.8-15.72-10.8-26.4 0-14.28 5.88-25.32 13.32-32.52 6.72-6.6 17.4-12.84 32.76-12.84 8.4 0 15.24 2.16 21.12 5.88a37.96 37.96 0 0 1 12.12 12.84l-4.68 3.36c-2.4-4.2-6-8.76-10.08-11.64-5.28-3.72-12.12-5.64-18.72-5.64-11.28 0-21.72 4.68-28.56 11.28C566.2 49.27 562 60.19 562 70.39s3.96 17.76 9.12 23.16c5.88 6.12 14.04 9.72 23.04 9.72 10.2 0 19.8-3.96 26.4-10.8 3.6-3.72 8.04-10.08 9.6-19.32h-28.2l.6-4.8z" fill="#231815"/><defs ><path id="B" d="M190.63 11.3h2.59v1.62c.25-.4 1.37-1.98 3.38-1.98.79 0 1.66.29 2.3.61l-1.22 2.34c-.58-.4-1.12-.5-1.51-.5-1.04 0-1.69.43-2.09.94-.43.58-.86 1.58-.86 4.03v7.88h-2.59V11.3z"/><path id="C" d="M262.05 14.76c-.36-.86-1.12-1.51-2.09-1.51s-1.8.54-1.8 1.69c0 1.08.72 1.4 2.41 2.12 2.16.9 3.17 1.58 3.74 2.3.65.79.79 1.58.79 2.41 0 3.13-2.27 4.9-5.15 4.9-.61 0-3.96-.07-5.22-3.82l2.23-.94c.29.79 1.15 2.45 3.02 2.45 1.69 0 2.45-1.26 2.45-2.38 0-1.4-1.01-1.87-2.41-2.48-1.8-.79-2.95-1.37-3.64-2.2-.58-.72-.68-1.44-.68-2.2 0-2.63 1.84-4.18 4.36-4.18.79 0 2.92.14 4.1 2.7l-2.12 1.12z"/><path id="D" d="M196.79 56.3h2.59v14.94h-2.59v-2.09c-.86 1.12-2.48 2.52-5.11 2.52-3.78 0-7.27-2.66-7.27-7.92s3.46-7.81 7.27-7.81c2.88 0 4.43 1.58 5.11 2.48V56.3zm-9.72 7.45c0 3.2 1.8 5.62 4.9 5.62s4.97-2.63 4.97-5.58c0-3.85-2.66-5.54-4.97-5.54-2.56 0-4.9 1.87-4.9 5.51z"/><path id="E" d="M179.33,108.83c0-4.54,3.35-7.88,7.92-7.88s7.92,3.35,7.92,7.88-3.38,7.85-7.92,7.85-7.92-3.31-7.92-7.85Zm2.66,0c0,3.67,2.59,5.54,5.26,5.54s5.26-1.91,5.26-5.54-2.52-5.58-5.26-5.58-5.26,1.94-5.26,5.58Z"/></defs></svg>