<svg xmlns="http://www.w3.org/2000/svg" xmlns:xlink="http://www.w3.org/1999/xlink" viewBox="0 0 680.88 114.98" xmlns:v="https://vecta.io/nano"><g fill="#000"><path d="M163.93,61.82c0-10.06,7.84-17.44,17.54-17.44s17.54,7.38,17.54,17.44-7.79,17.44-17.54,17.44-17.54-7.43-17.54-17.44Zm3.84,0c0,7.73,6.12,13.9,13.7,13.9s13.7-6.17,13.7-13.9-6.12-13.9-13.7-13.9-13.7,6.17-13.7,13.9Z"/><use xlink:href="#B"/><path d="M239.7 63.54c-1.92-2.43-4.7-3.13-6.57-3.13-3.89 0-7.43 2.73-7.43 7.84s3.64 7.78 7.38 7.78c2.17 0 4.85-.96 6.77-3.29v4.35c-2.27 1.67-4.7 2.17-6.67 2.17-6.52 0-11.22-4.65-11.22-10.97s4.75-11.12 11.22-11.12c3.34 0 5.51 1.31 6.52 2.02v4.35zm7.53-21.73h3.64v18.3a7.41 7.41 0 0 1 6.02-2.93c2.48 0 4.75 1.01 6.02 2.88 1.06 1.57 1.21 3.29 1.21 5.61v12.99h-3.64V65.77c0-1.26-.1-2.73-.96-3.84-.71-.91-1.82-1.52-3.44-1.52-1.26 0-2.63.35-3.69 1.62-1.42 1.67-1.52 4.15-1.52 5.66v10.97h-3.64V41.81zM290.5 73.3c-.61 1.16-1.52 2.43-2.58 3.39-1.92 1.72-4.3 2.58-6.98 2.58-5.06 0-10.36-3.18-10.36-10.97 0-6.27 3.84-11.12 10.16-11.12 4.09 0 6.67 2.02 7.94 3.84 1.31 1.87 2.07 5.11 1.97 7.89h-16.33c.05 4.35 3.03 7.13 6.67 7.13 1.72 0 3.08-.51 4.3-1.52.96-.81 1.72-1.87 2.17-2.88l3.03 1.67zm-3.59-7.43c-.61-3.29-3.08-5.46-6.17-5.46s-5.61 2.33-6.17 5.46h12.33zm20.07-3.34c-.5-1.21-1.57-2.12-2.93-2.12s-2.53.76-2.53 2.38c0 1.52 1.01 1.97 3.39 2.98 3.03 1.26 4.45 2.22 5.26 3.24.91 1.11 1.11 2.22 1.11 3.39 0 4.4-3.19 6.88-7.23 6.88-.86 0-5.56-.1-7.33-5.36l3.13-1.31c.4 1.11 1.62 3.44 4.25 3.44 2.38 0 3.44-1.77 3.44-3.34 0-1.97-1.42-2.63-3.39-3.49-2.53-1.11-4.15-1.92-5.11-3.08-.81-1.01-.96-2.02-.96-3.08 0-3.69 2.58-5.86 6.12-5.86 1.11 0 4.09.2 5.76 3.79l-2.98 1.57zm16.07-1.51v17.64h-3.64V61.02h-2.22v-3.34h2.22V50.1h3.64v7.58h3.64v3.34h-3.64z"/><use xlink:href="#B" x="127.23"/><use xlink:href="#C"/><path d="M421.52 52.37c-1.06-1.06-2.68-2.33-4.4-3.13-1.77-.81-3.84-1.31-5.81-1.31-7.79 0-13.55 6.27-13.55 14.05 0 9.15 7.43 13.75 13.6 13.75 2.28 0 4.5-.66 6.27-1.57 1.92-.96 3.29-2.22 3.89-2.83v4.65a17.55 17.55 0 0 1-10.16 3.29c-10.01 0-17.44-7.58-17.44-17.34s7.53-17.54 17.64-17.54c2.02 0 5.92.25 9.96 3.34v4.65z"/><use xlink:href="#C" x="78.55"/><path d="M457.51 57.68h3.64v2.43a7.41 7.41 0 0 1 6.02-2.93c2.48 0 4.75 1.01 6.02 2.88 1.06 1.57 1.21 3.29 1.21 5.61v12.99h-3.64V65.77c0-1.26-.1-2.73-.96-3.84-.71-.91-1.82-1.52-3.44-1.52-1.26 0-2.63.35-3.69 1.62-1.42 1.67-1.52 4.15-1.52 5.66v10.97h-3.64V57.68zm25.27 0l6.27 14.15 6.27-14.15h4.04l-10.31 22.34-10.31-22.34h4.04z"/><use xlink:href="#C" x="153.16"/><path d="M540.06 62.53c-.51-1.21-1.57-2.12-2.93-2.12s-2.53.76-2.53 2.38c0 1.52 1.01 1.97 3.39 2.98 3.03 1.26 4.45 2.22 5.26 3.24.91 1.11 1.11 2.22 1.11 3.39 0 4.4-3.18 6.88-7.23 6.88-.86 0-5.56-.1-7.33-5.36l3.13-1.31c.4 1.11 1.62 3.44 4.25 3.44 2.38 0 3.44-1.77 3.44-3.34 0-1.97-1.42-2.63-3.39-3.49-2.53-1.11-4.15-1.92-5.11-3.08-.81-1.01-.96-2.02-.96-3.08 0-3.69 2.58-5.86 6.12-5.86 1.11 0 4.09.2 5.76 3.79l-2.98 1.57zm33.86-14.05v30.18h-3.74V48.48h-8.19v-3.54h20.12v3.54h-8.19z"/><use xlink:href="#D"/><path d="M616.84 41.81v23.66l7.68-7.78h4.75l-9 9 10.62 11.98h-4.75l-8.39-9.55-.91.91v8.64h-3.64V41.81h3.64zm26.13 34.88l-9.66-19.01h4.15l7.43 15.01 6.83-15.01h4.04l-15.42 32.61h-4.04l6.67-13.6z"/><use xlink:href="#D" x="74"/></g><g stroke-miterlimit="10" fill="none" stroke="#000" stroke-width="2.77"><path d="M24.92 52.45h82.5M13.15 72.83h105.91M36.69 32.07h58.96"/><path d="M83.76 113.6l29.48-51.07M36.69 113.6l53.02-91.83M60.22 113.6l41.25-71.45"/><path d="M71.99 113.38L30.87 42.15m64.78 71.45L42.64 21.77"/></g><path d="M130.96 93.21H1.39L54.4 1.39l64.79 112.21H13.15L77.94 1.39l53.02 91.82z" fill="none" stroke="#000" stroke-width="2.77" stroke-linejoin="round"/><path d="M48.58 113.6L19.1 62.53" stroke-miterlimit="10" fill="none" stroke="#000" stroke-width="2.77"/><defs ><path id="B" d="M206.69 57.68h3.64v2.27c.35-.56 1.92-2.78 4.75-2.78 1.11 0 2.33.4 3.24.86l-1.72 3.29c-.81-.56-1.57-.71-2.12-.71-1.47 0-2.38.61-2.93 1.31-.61.81-1.21 2.22-1.21 5.66v11.07h-3.64V57.67z"/><path id="C" d="M366.78,57.68h3.64v20.98h-3.64v-2.93c-1.21,1.57-3.49,3.54-7.18,3.54-5.31,0-10.21-3.74-10.21-11.12s4.85-10.97,10.21-10.97c4.04,0,6.22,2.22,7.18,3.49v-2.98Zm-13.65,10.46c0,4.5,2.53,7.89,6.88,7.89s6.98-3.69,6.98-7.84c0-5.41-3.74-7.79-6.98-7.79-3.59,0-6.88,2.63-6.88,7.73Z"/><path id="D" d="M584.64,68.25c0-6.37,4.7-11.07,11.12-11.07s11.12,4.7,11.12,11.07-4.75,11.02-11.12,11.02-11.12-4.65-11.12-11.02Zm3.74,0c0,5.16,3.64,7.78,7.38,7.78s7.38-2.68,7.38-7.78-3.54-7.84-7.38-7.84-7.38,2.73-7.38,7.84Z"/></defs></svg>
